<?xml version="1.0" encoding="UTF-8" standalone="no"?>
<!-- Created with Inkscape (http://www.inkscape.org/) -->

<svg
   width="210mm"
   height="297mm"
   viewBox="0 0 210 297"
   version="1.1"
   id="svg5"
   inkscape:export-filename="bitmap.svg"
   inkscape:export-xdpi="96"
   inkscape:export-ydpi="96"
   xmlns:inkscape="http://www.inkscape.org/namespaces/inkscape"
   xmlns:sodipodi="http://sodipodi.sourceforge.net/DTD/sodipodi-0.dtd"
   xmlns="http://www.w3.org/2000/svg"
   xmlns:svg="http://www.w3.org/2000/svg">
  <sodipodi:namedview
     id="namedview7"
     pagecolor="#ffffff"
     bordercolor="#000000"
     borderopacity="0.25"
     inkscape:showpageshadow="2"
     inkscape:pageopacity="0.0"
     inkscape:pagecheckerboard="0"
     inkscape:deskcolor="#d1d1d1"
     inkscape:document-units="mm"
     showgrid="false" />
  <defs
     id="defs2" />
  <g
     inkscape:label="Capa 1"
     inkscape:groupmode="layer"
     id="layer1">
    <path
       sodipodi:type="spiral"
       style="fill:#550000;fill-rule:evenodd;stroke:#000000;stroke-width:0.264583"
       id="path6514"
       sodipodi:cx="52.939854"
       sodipodi:cy="65.597977"
       sodipodi:expansion="1"
       sodipodi:revolution="3"
       sodipodi:radius="22.192217"
       sodipodi:argument="-18.175406"
       sodipodi:t0="0"
       d="m 52.939854,65.597977 c 0.869269,0.694574 -0.507405,1.514436 -1.154428,1.444782 -1.753391,-0.188755 -2.273251,-2.34955 -1.735138,-3.753638 0.962557,-2.511583 4.11982,-3.145913 6.352849,-2.025493 3.277059,1.644261 4.041128,5.912908 2.315848,8.952059 -2.299527,4.050712 -7.713939,4.945754 -11.55127,2.606204 -4.82889,-2.944085 -5.855206,-9.518717 -2.896558,-14.15048 3.583319,-5.609686 11.325598,-6.767447 16.74969,-3.186914 6.392105,4.219535 7.681437,13.13379 3.477269,19.348901 C 59.644238,82.00899 49.55526,83.429992 42.550004,78.601022 34.590188,73.114039 33.037437,61.848486 38.492026,54.0537 c 6.119223,-8.744572 18.562665,-10.429134 27.146532,-4.348334 9.52972,6.75084 11.346144,20.373132 4.638689,29.745743" />
    <path
       sodipodi:type="spiral"
       style="fill:#ff5555;fill-rule:evenodd;stroke:#000000;stroke-width:0.264583"
       id="path6516"
       sodipodi:cx="109.74294"
       sodipodi:cy="89.730507"
       sodipodi:expansion="1"
       sodipodi:revolution="3"
       sodipodi:radius="73.071709"
       sodipodi:argument="-16.532913"
       sodipodi:t0="0"
       d="m 109.74294,89.730507 c -2.48616,2.691038 -4.85405,-2.023636 -4.47268,-4.132167 1.03349,-5.71399 8.25262,-6.911654 12.73702,-4.813196 8.02154,3.753648 9.36011,14.272392 5.15371,21.341866 -6.17306,10.37473 -20.37243,11.87725 -29.946715,5.49422 C 80.453261,99.113659 78.790844,81.12046 87.379535,69.069672 98.187525,53.904985 120.0221,52.085095 134.53594,62.894417 c 17.57822,13.091537 19.55439,38.791923 6.51577,55.761263 -15.36555,19.99778 -44.945983,22.12962 -64.366103,6.85628 C 54.26431,107.87828 51.977115,74.408756 69.488808,52.541004 89.386707,27.693474 126.75144,25.251108 151.06461,45.003691 c 27.27571,22.159413 29.87315,63.423669 7.87783,90.180649 -24.41897,29.70533 -69.585924,32.45777 -98.785501,8.21835" />
    <path
       sodipodi:type="spiral"
       style="fill:#00ff00;fill-rule:evenodd;stroke:#000000;stroke-width:0.264583"
       id="path6518"
       sodipodi:cx="15.063319"
       sodipodi:cy="135.19731"
       sodipodi:expansion="1"
       sodipodi:revolution="3"
       sodipodi:radius="96.995575"
       sodipodi:argument="-19.777121"
       sodipodi:t0="0"
       d="m 15.063319,135.19731 c 2.916874,-3.89135 6.684544,2.01203 6.467678,4.84804 -0.587691,7.68539 -9.957127,10.24841 -16.1637502,8.08732 C -5.7349469,144.26698 -8.9326806,130.55983 -4.3397154,120.6532 2.4006457,106.11483 20.945474,102.20015 34.455464,109.3266 52.462156,118.82503 57.103818,142.35757 47.40171,159.43749 35.192598,180.93084 6.6092434,186.30275 -14.024898,174.00338 -39.015608,159.1072 -45.119517,125.4406 -30.210428,101.26106 -12.640583,72.7663 26.128143,65.929256 53.847609,83.455886 85.850829,103.69107 93.42181,147.57392 73.272423,178.82964 50.37741,214.34437 1.3723615,222.64989 -33.417043,199.87409 -72.445497,174.3231 -81.485993,120.19012 -56.081141,81.868913 -27.87694,39.32511 31.388159,29.549277 73.239754,57.585173" />
    <path
       sodipodi:type="spiral"
       style="fill:#00ffff;fill-rule:evenodd;stroke:#000000;stroke-width:0.264583"
       id="path6520"
       sodipodi:cx="21.574162"
       sodipodi:cy="79.458817"
       sodipodi:expansion="1"
       sodipodi:revolution="3"
       sodipodi:radius="110.85751"
       sodipodi:argument="-18.103689"
       sodipodi:t0="0"
       d="m 21.574162,79.458817 c 4.082512,3.771855 -3.070219,7.364045 -6.269073,6.785403 C 6.6363933,84.676137 4.8196333,73.723916 8.0033541,66.920671 13.698284,54.751263 29.656372,52.720832 40.381379,59.102605 56.120758,68.468115 58.399803,90.010103 48.715776,104.53511 35.808492,123.89465 8.5108546,126.41616 -9.7712012,113.38584 -32.777303,96.988502 -35.537594,63.863089 -19.138261,41.844381 0.72352859,15.176776 39.713787,12.179511 65.457669,31.96099 95.795944,55.272779 99.029263,100.14949 75.857391,129.6114 49.104548,163.62633 -1.6723378,167.09522 -34.847491,140.52745 -72.543209,110.33947 -76.247385,53.653139 -46.279876,16.768091 -12.66086,-24.611358 49.941465,-28.55067 90.533959,4.8193756 135.59932,41.866452 139.77368,110.38959 102.99901,154.68769" />
    <path
       sodipodi:type="spiral"
       style="fill:#ff0000;fill-rule:evenodd;stroke:#000000;stroke-width:0.264583"
       id="path6522"
       sodipodi:cx="129.07565"
       sodipodi:cy="207.81793"
       sodipodi:expansion="1"
       sodipodi:revolution="3"
       sodipodi:radius="140.23523"
       sodipodi:argument="-20.135849"
       sodipodi:t0="0"
       d="m 129.07565,207.81793 c 1.97352,-6.74852 10.07054,-0.66923 11.2165,3.28011 3.10546,10.70246 -8.2775,18.92803 -17.77672,19.15288 -16.99187,0.4022 -28.278481,-16.5308 -27.089262,-32.27332 1.745226,-23.10278 24.863352,-37.81554 46.769922,-35.02565 29.19803,3.71849 47.42667,33.21974 42.96204,61.26653 -5.61829,35.29403 -41.58645,57.07502 -75.76314,50.89842 -41.392547,-7.48068 -66.744702,-49.95876 -58.834803,-90.25974 9.321543,-47.49331 58.334533,-76.42776 104.756353,-66.77119 53.59582,11.1489 86.11974,66.71261 74.70757,119.25295 C 217.05688,297.0386 154.93179,333.15689 96.274551,319.98288 30.469995,305.20364 -9.2461866,236.50965 5.6942067,171.73672 22.280875,99.826487 97.549256,56.509805 168.43698,73.219991" />
    <path
       sodipodi:type="spiral"
       style="fill:#ff6600;fill-rule:evenodd;stroke:#000000;stroke-width:0.264583"
       id="path6524"
       sodipodi:cx="207.0518"
       sodipodi:cy="29.272522"
       sodipodi:expansion="1"
       sodipodi:revolution="3"
       sodipodi:radius="151.40128"
       sodipodi:argument="-16.12635"
       sodipodi:t0="0"
       d="m 207.0518,29.272522 c -6.93626,3.084134 -7.57945,-7.828335 -5.12603,-11.528518 6.64862,-10.0272677 21.36839,-6.391398 28.18307,1.27645 12.18987,13.715983 6.11857,34.830566 -7.67894,44.837623 -20.24839,14.68576 -48.50176,5.910696 -61.49217,-14.08142 -17.31418,-26.646345 -5.73488,-62.250614 20.4839,-78.146727 32.99366,-20.003636 76.03733,-5.576529 94.80128,26.8863892 22.72567,39.3169438 5.42847,89.8455238 -33.28887,111.4558308 -45.62704,25.467 -103.66715,5.28688 -128.11038,-39.691358 -28.220686,-51.929157 -5.14962,-117.497736 46.09384,-144.764936 58.22608,-30.982726 131.33461,-5.015375 161.41949,52.496328 33.75069,64.519439 4.88331,145.176056 -58.89881,178.074036 -70.81025,36.523 -159.02096,4.75289 -194.728598,-65.301293" />
    <path
       sodipodi:type="spiral"
       style="fill:#241c1c;fill-rule:evenodd;stroke:#000000;stroke-width:0.264583"
       id="path6526"
       sodipodi:cx="288.49039"
       sodipodi:cy="206.93095"
       sodipodi:expansion="1"
       sodipodi:revolution="3"
       sodipodi:radius="252.6393"
       sodipodi:argument="-21.973579"
       sodipodi:t0="0"
       d="m 288.49039,206.93095 c -12.66498,-0.22253 -5.94848,-17.18192 0.36987,-21.05002 17.12233,-10.48231 36.82541,5.38948 41.73018,21.78976 8.77348,29.33626 -15.28819,56.99602 -43.20966,62.41034 -40.97588,7.94574 -77.52854,-25.23594 -83.0905,-64.62955 -7.4132,-52.5055 35.18992,-98.20113 86.04945,-103.77065 64.00154,-7.008683 118.94328,45.14414 124.45081,107.46934 6.67035,75.48417 -55.09796,139.72519 -128.88924,145.13096 C 198.94083,360.65165 125.36933,289.2297 120.09018,203.972 113.9952,105.53861 195.09487,22.616647 291.81921,17.480724 401.72356,11.644961 494.00958,102.43852 498.99064,210.62965 504.57865,332.00374 404.0798,433.66349 284.42182,438.48124 151.57878,443.82984 40.538146,333.6174 35.89008,202.49252" />
    <path
       sodipodi:type="spiral"
       style="fill:none;fill-rule:evenodd;stroke:#000000;stroke-width:0.264583"
       id="path6528"
       sodipodi:cx="-62.258762"
       sodipodi:cy="255.68773"
       sodipodi:expansion="1"
       sodipodi:revolution="30.457886"
       sodipodi:radius="87.909554"
       sodipodi:argument="-16.313919"
       sodipodi:t0="0.054325834"
       d="m -57.798873,257.39573 c -0.756869,2.73639 -3.757783,4.19983 -6.425951,3.42573 -3.102728,-0.90017 -4.754126,-4.32188 -3.841512,-7.35785 1.042846,-3.46922 4.886122,-5.30886 8.289757,-4.2573 3.835801,1.18508 5.863885,5.45048 4.673074,9.22166 -1.326998,4.20247 -6.014907,6.41915 -10.153562,5.08886 -4.569202,-1.46869 -6.974583,-6.5794 -5.504636,-11.08547 1.610194,-4.93598 7.143946,-7.53015 12.017366,-5.92041 5.3028,1.75156 8.085834,7.70853 6.336199,12.94927 -1.892828,5.66964 -8.273145,8.64159 -13.881172,6.75197 -6.036523,-2.034 -9.197436,-8.83778 -7.16776,-14.81307 2.175103,-6.40342 9.402448,-9.75333 15.744976,-7.58354 6.770335,2.31614 10.309278,9.96713 7.999323,16.67688 -2.457135,7.13726 -10.531827,10.86526 -17.608782,8.4151 -7.504206,-2.59808 -11.421288,-11.09654 -8.830884,-18.54068 2.738995,-7.87116 11.661259,-11.97734 19.472586,-9.24667 8.238124,2.87988 12.533424,12.22599 9.662447,20.40449 -3.020729,8.6051 -12.790732,13.08953 -21.336391,10.07823 -8.972076,-3.16156 -13.645653,-13.35548 -10.49401,-22.26829 3.302368,-9.33907 13.920237,-14.2018 23.200197,-10.9098 9.706054,3.44316 14.757953,14.485 11.325572,24.1321 -3.583933,10.07306 -15.049767,15.31413 -25.064002,11.74136 -10.440053,-3.7247 -15.870312,-15.61454 -12.157134,-25.99591 3.865439,-10.80706 16.179315,-16.42651 26.927807,-12.57291 11.174069,4.00617 16.982716,16.74409 12.988696,27.85971 -4.146898,11.54108 -17.30888,17.53893 -28.791612,13.40447 -11.908098,-4.28761 -18.095159,-17.87366 -13.820258,-29.72351 4.428319,-12.27512 18.438458,-18.65139 30.655417,-14.23604 12.642139,4.56902 19.207632,19.00325 14.65182,31.58732 -4.709709,13.00916 -19.568048,19.76388 -32.519222,15.0676 -13.376189,-4.85039 -20.320131,-20.13284 -15.483383,-33.45112 4.991072,-13.74322 20.697647,-20.87639 34.383028,-15.89917 14.110247,5.13175 21.432652,21.26245 16.314945,35.31493 -5.272413,14.47728 -21.827253,21.98892 -36.246833,16.73073 -14.844313,-5.41308 -22.545192,-22.39206 -17.146507,-37.17874 5.553735,-15.21134 22.956866,-23.10146 38.110638,-17.56228 15.578383,5.69438 23.657748,23.52167 17.978069,39.04254 -5.83504,15.94542 -24.086485,24.21403 -39.974443,18.39385 -16.312459,-5.97569 -24.770317,-24.6513 -18.809631,-40.90635 6.116331,-16.6795 25.216109,-25.32661 41.838248,-19.22541 17.046539,6.25697 25.882899,25.78092 19.641193,42.77015 -6.39761,17.41358 -26.345738,26.43919 -43.702053,20.05697 -17.780624,-6.53824 -26.995487,-26.91055 -20.472755,-44.63395 6.678878,-18.14767 27.47537,-27.55179 45.565857,-20.88854 18.514712,6.81951 28.108094,28.04019 21.304318,46.49776 -6.960137,18.88176 -28.605007,28.6644 -47.429663,21.7201 -19.248802,-7.10076 -29.220704,-29.16983 -22.13588,-48.36157 7.241388,-19.61584 29.734646,-29.77701 49.293468,-22.55166 19.982896,7.38201 30.333321,30.29947 22.967443,50.22537 -7.522631,20.34995 -30.864288,30.88964 -51.157274,23.38323 -20.716991,-7.66325 -31.445941,-31.42911 -23.799001,-52.08918 7.803863,-21.08404 31.99393,-32.00226 53.021075,-24.21478 21.451089,7.94448 32.558575,32.55875 24.630567,53.95298 -8.085097,21.81814 -33.123579,33.11489 -54.884883,25.04634 -22.185189,-8.2257 -33.671209,-33.6884 -25.462129,-55.81678 8.366321,-22.55224 34.253228,-34.22753 56.748688,-25.87791 22.919291,8.50693 34.78385,34.81805 26.293691,57.68059 -8.647541,23.28634 -35.382878,35.34017 -58.612493,26.70947 -23.653396,-8.78815 -35.896496,-35.9477 -27.125256,-59.54439 8.928759,-24.02045 36.512533,-36.45282 60.476301,-27.54104 24.387498,9.06936 37.0091423,37.07736 27.956815,61.4082 -9.209967,24.75455 -37.642184,37.56547 -62.340103,28.3726 -25.121603,-9.35057 -38.121793,-38.20701 -28.788373,-63.27201 9.49117,-25.48865 38.771835,-38.67812 64.203904,-29.20416 25.855711,9.63178 39.2344493,39.33667 29.61994,65.13582 -9.77238,26.22276 -39.901496,39.79077 -66.067714,30.03572 -26.58982,-9.91298 -40.34711,-40.46633 -30.4515,-66.99962 10.05358,-26.95687 41.031151,-40.90344 67.931517,-30.86728 27.323928,10.19418 41.4597685,41.59598 31.283064,68.86342 -10.334779,27.69098 -42.160812,42.0161 -69.795324,31.69884 -28.058037,-10.47537 -42.572437,-42.72564 -32.114627,-70.72722 10.61598,-28.4251 43.290472,-43.12877 71.65913,-32.53041 28.792149,10.75657 43.6850981,43.8553 32.9461883,72.59103 -10.8971683,29.15921 -44.4201323,44.24143 -73.5229343,33.36197 -29.526264,-11.03776 -44.797764,-44.98496 -33.777754,-74.45484 11.17836,-29.89331 45.549797,-45.3541 75.386743,-34.19353 30.260373,11.31896 45.9104364,46.11463 34.6093126,76.31864 -11.4595476,30.62743 -46.6794556,46.46678 -77.2505446,35.0251 -30.994491,-11.60014 -47.023111,-47.24429 -35.440871,-78.18245 11.74073,-31.36154 47.809115,-47.57944 79.114346,-35.85665 31.7286004,11.88132 48.1357824,48.37395 36.2724369,80.04625 -12.0219199,32.09566 -48.9387819,48.69212 -80.9781549,36.68822 -32.462718,-12.16252 -49.248458,-49.50362 -37.103998,-81.91006 12.3031,-32.82977 50.068445,-49.8048 82.841958,-37.51978 33.1968307,12.44369 50.361136,50.63328 37.9355622,83.77386 -12.5842852,33.56389 -51.1981112,50.91747 -84.7057652,38.35134 -33.930945,-12.72487 -51.473815,-51.76294 -38.767125,-85.63766 12.86547,-34.29801 52.327778,-52.03016 86.569571,-39.18291 34.6650622,13.00606 52.586494,52.89261 39.5986865,87.50147 -13.1466455,35.03212 -53.4574425,53.14284 -88.4333745,40.01447 -35.399183,-13.28723 -53.699173,-54.02228 -40.430253,-89.36528 13.42783,-35.76623 54.587113,-54.25551 90.297184,-40.84603 36.13329543,13.56842 54.811857,55.15195 41.2618108,91.22909 -13.7089997,36.50035 -55.7167758,55.3682 -92.1609848,41.67759 -36.86741,-13.84959 -55.92454,-56.28161 -42.09337,-93.09289 13.99017,-37.23447 56.84644,-56.48088 94.024787,-42.50915 37.6015303,14.13076 57.037225,57.41127 42.924935,94.95669 -14.2713496,37.96859 -57.976111,57.59357 -95.888595,43.34072 -38.335647,-14.41194 -58.149907,-58.54095 -43.756497,-96.8205 14.55252,-38.70271 59.105779,-58.70626 97.7524,-44.17228 39.0697666,14.69311 59.262597,59.67061 44.5880593,98.6843 -14.8336955,39.43683 -60.2354483,59.81894 -99.6162053,45.00384 -39.803884,-14.97428 -60.375284,-60.80028 -45.419624,-100.54811 15.11487,-40.17094 61.365119,-60.93162 101.480013,-45.8354 40.5380042,15.25545 61.487972,61.92995 46.251184,102.41191 -15.3960382,40.90507 -62.494786,62.04432 -103.343816,46.66697 -41.272121,-15.53662 -62.600661,-63.05962 -47.082741,-104.27572 15.6772,-41.63918 63.62445,-63.157 105.207616,-47.49853 42.0062429,15.8178 63.713351,64.18929 47.914308,106.13953 -15.95837701,42.3733 -64.754125,64.26969 -107.071426,48.33009 -42.740358,-16.09896 -64.826038,-65.31896 -48.745868,-108.00333 16.23954,-43.10742 65.883793,-65.38239 108.935229,-49.16165 43.474483,16.38013 65.938732,66.44863 49.577432,109.86713 -16.5207129,43.84154 -67.013465,66.49508 -110.799036,49.99321 -44.208605,-16.66129 -67.051425,-67.5783 -50.408995,-111.73093 16.80188,-44.57567 68.143137,-67.60777 112.662842,-50.82478 9.166725,3.45566 17.73919,8.45426 25.26329,14.72773" />
    <path
       sodipodi:type="spiral"
       style="fill:#ff00ff;fill-rule:evenodd;stroke:#000000;stroke-width:0.264583"
       id="path6530"
       sodipodi:cx="132.47911"
       sodipodi:cy="260.01367"
       sodipodi:expansion="1"
       sodipodi:revolution="30.457886"
       sodipodi:radius="112.19166"
       sodipodi:argument="-188.35123"
       sodipodi:t0="0.054325834"
       d="m 129.80189,254.53824 c 3.08775,-1.89592 7.1627,-0.65075 8.97993,2.39372 2.11321,3.54031 0.67734,8.17164 -2.81649,10.21171 -3.99241,2.33118 -9.18111,0.70419 -11.44349,-3.23928 -2.54965,-4.44419 -0.73126,-10.19094 3.66206,-12.67527 4.89575,-2.76845 11.20104,-0.75845 13.90704,4.08484 2.98752,5.34714 0.78576,12.21135 -4.50762,15.13883 -5.79842,3.20677 -13.22183,0.81314 -16.3706,-4.93041 -3.4262,-6.24959 -0.84061,-14.23244 5.35318,-17.60238 6.7007,-3.64575 15.24315,-0.86811 18.83416,5.77596 3.86539,7.15174 0.89567,16.25396 -6.19874,20.06594 -7.60273,4.08512 -17.26483,0.92326 -21.29772,-6.62152 -4.30492,-8.05369 -0.95088,-18.27576 7.04431,-22.5295 8.5046,-4.52477 19.28673,-0.97852 23.76127,7.46709 4.74468,8.95549 1.00619,20.29776 -7.88987,24.99305 -9.40636,4.96463 -21.30882,1.03388 -26.22483,-8.31265 -5.18461,-9.8572 -1.06158,-22.31992 8.73543,-27.45661 10.30803,-5.40462 23.33105,-1.08929 28.68839,9.15821 5.62467,10.75885 1.11702,24.3422 -9.58099,29.92017 -11.20964,5.84474 -25.35337,1.14477 -31.15195,-10.00377 -6.06482,-11.66043 -1.17251,-26.36456 10.42656,-32.38373 12.1112,-6.28493 27.37577,-1.20027 33.6155,10.84934 6.50506,12.56197 1.22804,28.38699 -11.27212,34.84728 -13.01272,6.7252 -29.39823,1.25581 -36.07906,-11.6949 -6.94535,-13.46347 -1.28358,-30.40948 12.11768,-37.31084 13.91422,-7.16551 31.42075,-1.31137 38.54262,12.54046 7.38569,14.36496 1.33916,32.43203 -12.96324,39.7744 -14.81569,7.60588 -33.44331,1.36695 -41.00618,-13.38602 -7.826075,-15.26641 -1.39475,-34.4546 13.8088,-42.23796 15.71714,-8.04628 35.46591,-1.42255 43.46974,14.23159 8.26649,16.16785 1.45035,36.47721 -14.65436,44.70151 -16.61857,8.48671 -37.48853,1.47816 -45.9333,-15.07714 -8.706938,-17.06928 -1.505972,-38.49985 15.49993,-47.16508 17.51998,-8.92717 39.51117,-1.53378 48.39685,15.92271 9.14741,17.97068 1.5616,40.5225 -16.34549,49.62863 -18.42138,9.36765 -41.53384,1.58942 -50.860408,-16.76827 -9.587901,-18.87208 -1.617244,-42.54518 17.191048,-52.09219 19.32278,-9.80815 43.55653,-1.64506 53.32397,17.61383 10.02841,19.77347 1.67289,44.56788 -18.03661,54.55575 -20.22416,10.24867 -45.57923,1.70072 -55.787527,-18.45939 -10.468935,-20.67485 -1.728548,-46.59059 18.882177,-57.01931 21.12553,-10.6892 47.60194,-1.75637 58.25108,19.30496 10.90947,21.57622 1.78421,48.61331 -19.72774,59.48286 -22.0269,11.12975 -49.62467,1.81204 -60.714637,-20.15052 -11.350023,-22.47758 -1.839876,-50.63604 20.573297,-61.94642 22.92827,-11.5703 51.64742,-1.86771 63.1782,20.99608 11.79058,23.37895 1.89555,52.65879 -21.41886,64.40998 -23.82962,12.01087 -53.67017,1.92339 -65.641756,-21.84164 -12.231155,-24.2803 -1.951225,-54.68155 22.264426,-66.87353 24.73097,-12.45145 55.69292,-1.97907 68.10531,22.6872 12.67173,25.18165 2.0069,56.7043 -23.10999,69.33709 -25.63232,12.89202 -57.715688,2.03474 -70.568865,-23.53277 -13.11232,-26.08299 -2.062589,-58.72707 23.955545,-71.80064 26.53367,-13.33262 59.73846,-2.09044 73.03243,24.37832 13.55291,26.98434 2.11827,60.74986 -24.80111,74.26421 -27.43501,13.77321 -61.761244,2.14612 -75.495984,-25.22389 -13.993513,-27.88568 -2.173966,-62.77264 25.646664,-76.72776 28.33635,-14.21382 63.78403,-2.20181 77.95955,26.06945 14.43411,28.78701 2.22965,64.79542 -26.49223,79.19132 -29.23769,14.65442 -65.806824,2.2575 -80.423104,-26.91501 -14.874726,-29.68835 -2.285352,-66.81822 27.337794,-81.65488 30.13901,-15.09504 67.82961,-2.3132 82.88665,27.76057 15.31535,30.58968 2.34105,68.84101 -28.18335,84.11844 -31.04034,15.53565 -69.852413,2.36889 -85.350213,-28.60614 -15.755959,-31.49101 -2.396748,-70.86381 29.028913,-86.58199 31.94167,-15.97627 71.87522,-2.4246 87.81377,29.45169 16.19659,32.39234 2.45245,72.88663 -29.87447,89.04556 -32.843,16.41689 -73.898027,2.48029 -90.277332,-30.29726 -16.637208,-33.29366 -2.50815,-74.90943 30.720042,-91.50911 33.74432,-16.85752 75.92083,-2.536 92.74088,31.14282 17.07784,34.19498 2.56386,76.93224 -31.5656,93.97266 -34.64564,17.29816 -77.943645,2.59171 -95.204442,-31.98838 -17.518468,-35.0963 -2.619558,-78.95505 32.411162,-96.43622 35.54697,-17.73879 79.96647,-2.64741 97.668,32.83394 17.95911,35.99763 2.67527,80.97788 -33.25672,98.89978 -36.44829,18.17943 -81.989285,2.70312 -100.131561,-33.6795 -18.399741,-36.89894 -2.730972,-83.00069 34.102286,-101.36334 37.349605,-18.62006 84.012105,-2.75883 102.595115,34.52507 18.84038,37.80026 2.78668,85.02351 -34.94785,103.82689 -38.25091,19.0607 -86.034924,2.81454 -105.05867,-35.37063 -19.281023,-38.70157 -2.84239,-87.04634 35.793409,-106.29045 39.152231,-19.50134 88.057751,-2.87024 107.522231,36.21619 19.72167,39.60289 2.8981,89.06917 -36.63897,108.75401 -40.05355,19.94199 -90.080581,2.92596 -109.98579,-37.06175 -20.162313,-40.50421 -2.953811,-91.092 37.484534,-111.21757 40.954866,-20.38264 92.103406,-2.98167 112.449346,37.90732 20.60296,41.40552 3.00952,93.11482 -38.33009,113.68112 -41.85618,20.82329 -94.126246,3.03738 -114.912909,-38.75287 -21.04361,-42.30684 -3.065236,-95.13766 39.175657,-116.14469 42.757492,-21.26393 96.149072,-3.09309 117.376462,39.59844 21.48426,43.20814 3.12095,97.16049 -40.02122,118.60824 -43.6588,21.70459 -98.171908,3.14881 -119.840018,-40.444 -21.924914,-44.10945 -3.176665,-99.18333 40.86678,-121.0718 44.560108,-22.14524 100.194748,-3.20452 122.303578,41.28956 22.36557,45.01077 3.23238,101.20617 -41.71234,123.53536 -45.46142,22.5859 -102.217585,3.26024 -124.767138,-42.13512 -22.806223,-45.91208 -3.288095,-103.229 42.557904,-125.99892 46.362724,-23.02655 104.240424,-3.31595 127.230694,42.98069 23.24688,46.81338 3.34381,105.25184 -43.40347,128.46247 C 127.53319,370.02974 68.533962,349.9342 45.102973,302.73628 21.415435,255.02159 41.703445,195.4616 89.352001,171.81025 137.51734,147.90239 197.6381,168.38287 221.50981,216.48206 c 24.12819,48.616 3.45524,109.29753 -45.09459,133.38959 -49.06665,24.34853 -110.308945,3.4831 -134.621366,-45.51737 -24.568857,-49.51731 -3.510963,-111.32037 45.940151,-135.85315 49.967955,-24.78918 112.331785,-3.53882 137.084925,46.36294 25.00951,50.41861 3.56668,113.34321 -46.78572,138.3167 -50.86926,25.22985 -114.354626,3.59454 -139.548476,-47.2085 -25.450179,-51.31991 -3.622399,-115.36605 47.631275,-140.78025 51.770571,-25.67051 116.377471,-3.65026 142.012041,48.05405 25.89084,52.22122 3.67812,117.3889 -48.47684,143.24382 C 126.97934,382.60106 61.25089,360.19587 35.175615,307.59027 8.8441099,254.46774 31.441777,188.17853 84.498013,161.8829 c 53.573177,-26.55184 120.423167,-3.7617 146.939157,49.74518 26.77217,54.02383 3.78955,121.43459 -50.16796,148.17093 -54.47449,26.9925 -122.446018,3.81741 -149.402714,-50.59074 -5.550456,-11.20279 -9.203501,-23.32885 -10.768477,-35.73278" />
    <path
       sodipodi:type="spiral"
       style="fill:#c83737;fill-rule:evenodd;stroke:#000000;stroke-width:0.264583"
       id="path6532"
       sodipodi:cx="145.23898"
       sodipodi:cy="221.67473"
       sodipodi:expansion="1"
       sodipodi:revolution="30.457886"
       sodipodi:radius="82.173203"
       sodipodi:argument="-193.1232"
       sodipodi:t0="0.054325834"
       d="m 149.1255,219.47851 c 1.52085,2.17486 0.78819,5.20852 -1.35847,6.66995 -2.49628,1.69946 -5.94504,0.85163 -7.58899,-1.61386 -1.87855,-2.81731 -0.9153,-6.68192 1.86924,-8.50803 3.13811,-2.05797 7.41907,-0.97912 9.42707,2.12463 2.23764,3.45871 1.04307,8.15641 -2.38001,10.34611 -3.77919,2.4175 -8.89389,1.1071 -11.26515,-2.6354 -2.59749,-4.09957 -1.17119,-9.6315 2.89079,-12.18418 4.41987,-2.7776 10.36919,-1.23535 13.10322,3.14617 2.95779,4.74011 1.29954,11.10695 -3.40156,14.02226 -5.0603,3.13805 -11.84479,1.36377 -14.9413,-3.65695 -3.31837,-5.38046 -1.42803,-12.58267 3.91233,-15.86033 5.70058,-3.49875 13.3206,-1.49233 16.77938,4.16771 3.67915,6.02068 1.55663,14.05856 -4.42311,17.69841 -6.34074,3.85961 -14.79654,1.62096 -18.61744,-4.67849 -4.04008,-6.66079 -1.6853,-15.53456 4.93387,-19.53648 6.98083,-4.22058 16.2726,-1.74965 20.45552,5.18926 4.40111,7.30085 1.81402,17.01066 -5.44464,21.37456 -7.62086,4.58165 -17.74874,1.87839 -22.2936,-5.70003 -4.76221,-7.94086 -1.94277,-18.48684 5.95542,-23.21264 8.26084,-4.94278 19.22494,-2.00716 24.13167,6.21081 5.12338,8.58081 2.07157,19.96306 -6.46619,25.05071 -8.90079,5.30397 -20.7012,2.13597 -25.96975,-6.72158 -5.48459,-9.22075 -2.20038,-21.43934 6.97696,-26.88878 9.54071,-5.66521 22.1775,-2.2648 27.80783,7.23234 5.84584,9.86066 2.32921,22.91566 -7.48773,28.72686 -10.18061,6.02648 -23.65382,2.39365 -29.6459,-7.74311 -6.20713,-10.50055 -2.45807,-24.392 7.9985,-30.56494 10.82049,-6.38778 25.13017,-2.5225 31.48397,8.25389 6.56844,11.14042 2.58694,25.86836 -8.50927,32.40301 -11.46035,6.7491 -26.60655,2.65138 -33.32205,-8.76466 -6.92977,-11.78028 -2.71582,-27.34475 9.02005,-34.24109 12.1002,-7.11044 28.08294,-2.78026 35.16012,9.27543 7.29112,12.42013 2.84471,28.82116 -9.53082,36.07917 -12.74004,7.4718 -29.55936,2.90915 -36.9982,-9.78621 -7.65249,-13.05996 -2.9736,-30.29757 10.04159,-37.91724 13.37988,-7.83317 31.03579,-3.03805 38.83628,10.29698 8.01387,13.69979 3.1025,31.774 -10.55236,39.75532 -14.01971,8.19456 -32.51223,3.16695 -40.67436,-10.80775 -8.37526,-14.33962 -3.23141,-33.25045 11.06314,-41.59339 14.65952,-8.55596 33.98867,-3.29587 42.51243,11.31852 8.73666,14.97942 3.36033,34.7269 -11.57391,43.43146 -15.29933,8.91737 -35.46513,3.42479 -44.3505,-11.82929 -9.09808,-15.61924 -3.48925,-36.20336 12.08467,-45.26954 15.93914,-9.27878 36.9416,-3.55371 46.18858,12.34006 9.4595,16.25904 3.61818,37.67984 -12.59545,47.10762 -16.57894,9.64021 -38.41807,3.68264 -48.02665,-12.85083 -9.82092,-16.89884 -3.7471,-39.15632 13.10622,-48.9457 17.21874,-10.00163 39.89455,-3.81157 49.86473,13.36161 10.18235,17.53864 3.87604,40.63279 -13.61699,50.78377 -17.85853,10.36307 -41.37104,3.9405 -51.70281,-13.87238 -10.54379,-18.17843 -4.00497,-42.10928 14.12777,-52.62184 18.49832,-10.72452 42.84753,-4.06944 53.54088,14.38315 10.90523,18.81821 4.13391,43.58577 -14.63854,54.45992 -19.13811,11.08595 -44.32402,4.19837 -55.37896,-14.89393 -11.266678,-19.458 -4.26284,-45.06227 15.14931,-56.29799 19.7779,-11.44741 45.80053,-4.32732 57.21704,15.40469 11.62813,20.09779 4.39179,46.53878 -15.66008,58.13607 -20.41768,11.80886 -47.27704,4.45626 -59.05511,-15.91546 -11.989594,-20.73757 -4.52074,-48.01529 16.17085,-59.97415 21.05746,-12.17032 48.75354,-4.58521 60.89318,16.42624 12.35105,21.37735 4.64968,49.49179 -16.68162,61.81222 -21.69724,12.53178 -50.23005,4.71415 -62.73126,-16.93701 -12.712513,-22.01712 -4.77863,-50.96831 17.1924,-63.6503 22.33701,-12.89324 51.70656,-4.8431 64.56933,17.44778 13.07398,22.6569 4.90758,52.44483 -17.70317,65.48838 -22.97678,13.25471 -53.18308,4.97205 -66.40741,-17.95856 -13.435443,-23.29667 -5.036526,-53.92134 18.21394,-67.32644 23.61656,-13.61618 54.6596,-5.10101 68.24549,18.46932 13.79691,23.93645 5.16548,55.39786 -18.72471,69.16452 -24.25634,13.97766 -56.13612,5.22996 -70.08356,-18.98009 -14.158393,-24.57622 -5.294438,-56.87438 19.23548,-71.0026 24.8961,-14.33913 57.61264,-5.35891 71.92163,19.49087 14.51987,25.21598 5.42339,58.3509 -19.74625,72.84067 -25.53587,14.7006 -59.08917,5.48787 -73.759712,-20.00164 -14.88134,-25.85575 -5.552343,-59.82743 20.257022,-74.67875 26.17564,-15.06208 60.5657,-5.61682 75.59779,20.51241 15.24282,26.49553 5.6813,61.30396 -20.7678,76.51683 -26.8154,15.42356 -62.04222,5.74578 -77.435859,-21.02318 -15.604298,-27.13529 -5.810257,-62.7805 21.278569,-78.35491 27.45517,-15.78503 63.51876,-5.87473 79.27394,21.53396 15.96578,27.77506 5.93921,64.25702 -21.78934,80.19298 -28.09494,16.14652 -64.99529,6.00369 -81.112017,-22.04473 -16.327262,-28.41482 -6.068173,-65.73356 22.300117,-82.03105 28.7347,-16.50801 66.47182,-6.13266 82.95009,22.5555 16.68874,29.05458 6.19713,67.21008 -22.81089,83.86912 -29.37446,16.86949 -67.94835,6.26162 -84.788164,-23.06627 -17.050231,-29.69435 -6.326092,-68.68662 23.321654,-85.7072 30.01423,-17.23097 69.42489,-6.39057 86.62624,23.57704 17.41172,30.33411 6.45506,70.16316 -23.83242,87.54528 -30.654,17.59246 -70.90143,6.51953 -88.464321,-24.08781 -17.773206,-30.97388 -6.584015,-71.6397 24.343201,-89.38336 31.29375,-17.95395 72.37797,-6.64849 90.30239,24.59859 18.1347,31.61363 6.71298,73.11623 -24.85397,91.22143 -31.93352,18.31544 -73.85451,6.77746 -92.140469,-25.10936 -18.496183,-32.25339 -6.841938,-74.59277 25.364739,-93.05951 32.57328,-18.67692 75.33105,-6.90642 93.97855,25.62013 18.85767,32.89316 6.9709,76.06932 -25.87552,94.89759 -33.21303,19.03842 -76.80758,7.03538 -95.816616,-26.13091 -19.219165,-33.53291 -7.099865,-77.54585 26.386286,-96.73565 33.8528,-19.39991 78.28413,-7.16435 97.6547,26.64167 19.58065,34.17267 7.22882,79.0224 -26.89706,98.57373 -34.49256,19.76141 -79.76067,7.29331 -99.492773,-27.15244 -19.94215,-34.81243 -7.357793,-80.49894 27.407833,-100.41181 35.13231,-20.1229 81.23721,-7.42227 101.33084,27.66322 20.30365,35.45219 7.48676,81.97548 -27.9186,102.24988 -35.77207,20.48439 -82.713756,7.55124 -103.16892,-28.17399 -20.665139,-36.09195 -7.615723,-83.45203 28.42937,-104.08796 36.41183,-20.84588 84.1903,-7.6802 105.007,28.68476 21.02663,36.73171 7.74469,84.92858 -28.94015,105.92604 -37.05158,21.20738 -85.666842,7.80917 -106.845068,-29.19553 -21.388128,-37.37147 -7.873653,-86.40512 29.450918,-107.76411 37.69134,-21.56888 87.14339,-7.93814 108.68315,29.7063 21.74962,38.01122 8.00262,87.88166 -29.96169,109.60218 -38.3311,21.93038 -88.61994,8.06711 -110.521225,-30.21707 -22.111121,-38.65098 -8.131585,-89.35821 30.472465,-111.44026 7.94867,-4.54675 16.65514,-7.74651 25.65585,-9.43172" />
  </g>
</svg>
